
<svg version="1.0" xmlns="http://www.w3.org/2000/svg"
 width="100.000000pt" height="100.000000pt" viewBox="0 0 626.000000 612.000000"
 preserveAspectRatio="xMidYMid meet">

<g transform="translate(0.000000,612.000000) scale(0.100000,-0.100000)"
fill="#000000" stroke="none">
<path d="M2957 5779 c-76 -5 -161 -15 -189 -24 -29 -8 -68 -15 -88 -15 -40 0
-195 -35 -222 -50 -10 -6 -33 -10 -51 -10 -18 0 -42 -7 -53 -15 -10 -8 -29
-15 -41 -15 -12 0 -24 -4 -27 -8 -3 -4 -28 -14 -56 -22 -28 -8 -56 -20 -62
-27 -6 -7 -23 -13 -39 -13 -16 0 -29 -4 -29 -10 0 -5 -6 -10 -12 -10 -12 0
-118 -50 -128 -60 -3 -3 -44 -25 -92 -49 -48 -24 -93 -49 -99 -57 -6 -8 -19
-14 -29 -14 -10 0 -20 -7 -24 -15 -3 -8 -12 -15 -20 -15 -7 0 -16 -7 -20 -15
-3 -8 -12 -15 -20 -15 -8 0 -21 -6 -28 -13 -25 -24 -105 -87 -111 -87 -3 0
-28 -22 -57 -50 -29 -27 -55 -50 -58 -50 -4 0 -20 -14 -36 -30 -16 -17 -33
-30 -38 -30 -4 0 -8 -7 -8 -15 0 -8 -3 -15 -7 -15 -14 0 -82 -70 -202 -210
-17 -19 -31 -40 -31 -45 0 -6 -9 -16 -20 -23 -11 -7 -20 -18 -20 -25 0 -7 -9
-18 -20 -25 -11 -7 -20 -17 -20 -23 0 -5 -4 -15 -10 -22 -46 -57 -60 -76 -60
-85 0 -5 -7 -15 -15 -22 -8 -7 -15 -19 -15 -27 0 -7 -8 -23 -18 -33 -10 -11
-29 -41 -42 -67 -13 -27 -26 -50 -29 -53 -11 -9 -51 -95 -51 -108 0 -8 -9 -25
-20 -39 -11 -14 -20 -34 -20 -44 0 -10 -4 -20 -9 -23 -5 -4 -17 -31 -26 -61
-10 -30 -22 -55 -26 -55 -5 0 -9 -11 -9 -25 0 -13 -6 -42 -14 -62 -7 -21 -23
-72 -35 -113 -13 -41 -29 -95 -37 -120 -8 -25 -14 -61 -14 -81 0 -19 -8 -69
-19 -110 -42 -166 -45 -746 -4 -863 7 -21 16 -71 19 -110 4 -39 13 -83 20 -98
8 -15 14 -37 14 -50 0 -22 34 -134 51 -169 4 -9 11 -34 14 -55 4 -22 13 -48
20 -59 6 -11 18 -37 25 -58 7 -22 18 -51 26 -65 8 -15 14 -32 14 -38 0 -6 7
-17 15 -24 8 -7 15 -23 15 -36 0 -13 4 -24 10 -24 5 0 13 -12 16 -27 6 -23 48
-99 121 -218 7 -11 18 -31 25 -45 7 -14 25 -37 40 -53 15 -15 28 -34 28 -42 0
-8 9 -20 20 -27 11 -7 20 -17 20 -21 0 -13 63 -91 158 -197 95 -105 141 -149
287 -278 11 -10 38 -31 60 -47 22 -16 45 -34 50 -40 6 -6 24 -20 42 -30 17
-11 62 -41 101 -66 38 -26 79 -50 91 -54 11 -3 21 -10 21 -14 0 -4 16 -13 35
-21 19 -8 35 -17 35 -22 0 -4 9 -8 20 -8 11 0 20 -4 20 -9 0 -5 10 -13 23 -16
21 -7 141 -61 200 -91 16 -8 36 -14 45 -14 9 0 30 -7 46 -15 15 -8 36 -15 45
-15 9 0 25 -7 35 -15 11 -8 36 -15 56 -15 20 0 40 -3 44 -7 12 -13 81 -33 113
-33 17 0 44 -5 60 -12 15 -6 53 -15 83 -19 200 -28 250 -30 485 -26 246 5 345
14 436 43 26 8 60 14 75 14 16 0 54 9 84 20 30 11 66 20 80 20 14 0 34 6 45
14 11 7 31 16 45 19 49 11 126 40 197 73 40 19 77 34 83 34 5 0 10 5 10 10 0
6 11 10 24 10 13 0 29 7 36 15 7 8 19 15 26 15 8 0 14 5 14 10 0 6 9 10 20 10
11 0 20 5 20 10 0 6 6 10 14 10 7 0 19 7 26 15 7 8 19 15 27 15 8 0 32 14 53
30 21 17 42 30 47 30 6 0 21 9 34 20 13 11 56 44 95 73 91 66 133 100 196 159
29 27 55 48 60 48 4 0 8 4 8 8 0 5 35 44 78 88 84 88 143 156 182 212 14 21
33 43 43 50 9 7 17 20 17 27 0 8 9 20 20 27 11 7 20 21 20 30 0 10 5 18 10 18
6 0 10 6 10 14 0 7 10 24 23 37 12 13 31 42 42 64 11 22 22 42 25 45 5 5 74
135 90 170 3 8 14 30 23 48 9 19 17 41 17 50 0 8 6 23 14 31 7 9 26 52 40 96
15 44 33 91 40 105 7 14 16 45 20 69 4 24 10 49 14 55 7 11 23 78 48 206 8 41
18 89 23 105 13 42 34 437 27 510 -2 33 -8 123 -11 200 -4 77 -11 151 -16 165
-5 14 -15 59 -23 100 -8 41 -24 111 -36 155 -12 44 -26 96 -30 115 -11 43 -46
144 -66 187 -7 17 -14 35 -14 41 0 5 -7 15 -15 22 -8 7 -15 23 -15 36 0 12 -4
25 -9 29 -5 3 -15 22 -22 43 -6 20 -15 39 -18 42 -3 3 -18 30 -34 60 -44 89
-70 135 -79 138 -4 2 -8 10 -8 17 0 8 -6 20 -12 27 -24 25 -58 77 -58 88 0 5
-9 15 -20 22 -11 7 -20 20 -20 28 0 9 -8 23 -17 31 -20 18 -34 35 -78 94 -17
22 -42 52 -57 67 -16 15 -28 30 -28 34 0 8 -184 187 -245 239 -26 22 -55 48
-63 58 -9 9 -22 17 -29 17 -7 0 -13 4 -13 9 0 4 -19 21 -42 37 -24 16 -47 35
-51 41 -4 7 -16 13 -25 13 -9 0 -28 12 -41 26 -13 14 -39 31 -58 39 -18 8 -33
19 -33 24 0 6 -7 11 -15 11 -9 0 -32 11 -53 23 -59 38 -266 137 -283 137 -9 0
-22 7 -29 15 -7 8 -22 15 -34 15 -12 0 -26 4 -31 8 -6 5 -30 14 -55 21 -25 7
-54 18 -65 24 -11 6 -38 14 -60 18 -22 4 -76 17 -120 29 -44 12 -111 25 -150
30 -38 5 -86 13 -105 19 -29 9 -354 34 -385 29 -5 0 -72 -5 -148 -9z m486
-114 c32 -8 72 -15 89 -15 17 0 47 -4 67 -9 20 -5 63 -15 96 -21 33 -7 71 -17
85 -22 14 -6 43 -14 65 -19 40 -7 105 -29 160 -54 17 -7 58 -23 93 -36 34 -12
65 -26 68 -30 3 -5 13 -9 24 -9 10 0 20 -7 24 -15 3 -8 13 -15 23 -15 10 0 33
-9 51 -20 18 -11 39 -20 46 -20 8 0 16 -7 20 -15 3 -8 12 -15 21 -15 8 0 15
-4 15 -8 0 -4 16 -14 35 -21 19 -7 35 -17 35 -22 0 -5 6 -9 14 -9 8 0 16 -3
18 -8 2 -4 27 -22 56 -41 28 -18 52 -37 52 -42 0 -5 6 -9 13 -9 7 0 30 -16 51
-35 21 -19 41 -35 44 -35 7 0 37 -28 172 -162 118 -117 154 -157 192 -212 12
-17 30 -37 40 -44 10 -7 18 -20 18 -28 0 -8 4 -14 8 -14 5 0 15 -12 23 -27 8
-16 22 -36 31 -47 9 -10 24 -33 32 -51 9 -18 22 -38 31 -45 8 -7 15 -18 15
-24 0 -6 9 -22 20 -36 11 -14 20 -33 20 -42 0 -10 3 -18 8 -18 4 0 12 -10 18
-23 6 -12 26 -49 43 -81 17 -33 31 -66 31 -73 0 -8 7 -25 16 -39 31 -47 110
-281 123 -366 4 -25 12 -53 19 -60 6 -8 16 -45 21 -84 6 -38 15 -96 21 -129
32 -190 27 -565 -12 -705 -23 -84 -43 -127 -33 -70 16 89 17 316 1 392 -9 43
-16 109 -16 148 0 112 -16 73 -24 -57 -6 -116 -11 -148 -40 -288 -30 -139 -50
-210 -54 -187 -2 12 1 45 7 73 15 71 13 355 -4 473 -14 102 -25 134 -25 75 0
-38 -27 -278 -40 -354 -9 -57 -46 -204 -51 -210 -2 -2 -5 119 -5 268 -1 242
-4 281 -23 356 -11 46 -21 96 -21 110 0 14 -6 42 -13 61 -10 31 -11 12 -8
-125 2 -88 -2 -198 -8 -245 -24 -184 -43 -292 -56 -328 -12 -34 -14 -24 -14
128 -1 152 -11 290 -28 365 l-7 30 -7 -40 c-4 -22 -8 -67 -8 -100 -1 -62 -6
-94 -51 -338 -6 -32 -17 -73 -25 -90 -15 -32 -15 -32 -10 25 5 61 -20 415 -33
445 -4 11 -10 -19 -14 -77 -8 -122 -38 -324 -50 -335 -3 -3 -8 59 -12 137 -3
79 -10 166 -15 193 -5 28 -16 90 -25 139 -16 93 -53 224 -68 241 -4 5 -8 19
-8 32 0 13 -4 23 -9 23 -5 0 -14 20 -20 45 -6 25 -18 48 -26 51 -8 4 -15 10
-15 15 0 16 -35 89 -42 89 -5 0 -8 5 -8 10 0 6 -11 23 -25 38 -14 15 -25 22
-25 15 0 -6 6 -18 13 -25 15 -15 73 -157 83 -203 4 -16 13 -42 20 -56 14 -28
38 -125 55 -219 28 -162 32 -443 8 -585 -19 -112 -52 -250 -64 -270 -7 -11
-16 -39 -20 -63 -4 -23 -11 -44 -16 -48 -5 -3 -9 -12 -9 -20 0 -19 -77 -181
-102 -213 -10 -13 -18 -30 -18 -38 0 -8 -11 -26 -25 -41 -14 -15 -28 -35 -31
-45 -3 -10 -15 -28 -27 -41 -12 -12 -31 -35 -42 -51 -11 -16 -32 -42 -47 -57
-16 -16 -28 -31 -28 -33 0 -4 -62 -67 -111 -112 -13 -12 -29 -28 -36 -35 -20
-22 -42 -38 -52 -38 -5 0 -11 -7 -15 -15 -3 -8 -12 -15 -21 -15 -8 0 -15 -4
-15 -8 0 -5 -16 -17 -35 -28 -19 -10 -35 -22 -35 -26 0 -5 -7 -8 -15 -8 -8 0
-15 -4 -15 -9 0 -5 -16 -15 -35 -22 -19 -7 -35 -16 -35 -20 0 -4 -8 -9 -17
-13 -10 -3 -25 -9 -33 -14 -38 -22 -106 -52 -119 -52 -8 0 -22 -6 -30 -13 -18
-14 -97 -42 -151 -53 -19 -3 -39 -10 -45 -14 -5 -4 -28 -10 -50 -13 -22 -4
-60 -11 -85 -17 -85 -20 -385 -23 -490 -6 -169 29 -309 62 -324 77 -6 5 -20 9
-32 9 -12 0 -27 7 -34 15 -7 8 -21 15 -31 15 -10 0 -33 9 -51 20 -18 11 -41
20 -50 20 -10 0 -18 4 -18 9 0 5 -21 20 -47 33 -27 13 -50 25 -53 29 -3 3 -29
20 -57 39 -29 18 -53 37 -53 42 0 4 -7 8 -15 8 -9 0 -18 7 -21 15 -4 8 -10 15
-15 15 -18 0 -229 203 -229 221 0 5 -4 9 -9 9 -4 0 -21 19 -37 43 -16 23 -33
45 -37 48 -5 4 -14 16 -20 27 -7 11 -26 40 -42 64 -17 23 -41 64 -54 90 -12
27 -27 50 -32 53 -4 3 -13 24 -19 45 -6 22 -15 40 -20 40 -6 0 -10 11 -10 25
0 14 -4 25 -8 25 -4 0 -14 21 -21 47 -8 27 -17 53 -21 58 -4 6 -12 35 -18 65
-6 30 -17 75 -25 100 -22 67 -47 281 -47 395 0 113 33 360 55 413 25 59 22 62
-53 62 l-68 0 -18 -57 c-10 -32 -25 -101 -33 -153 -17 -119 -35 -422 -27 -474
4 -27 3 -36 -5 -32 -6 4 -11 17 -11 28 0 20 -5 40 -31 123 -5 17 -16 82 -25
145 -8 63 -18 124 -21 135 -13 40 -22 -58 -22 -253 -1 -110 -5 -191 -10 -188
-5 3 -11 20 -14 38 -3 18 -10 51 -16 73 -10 37 -18 87 -41 255 -5 36 -10 108
-11 160 -1 81 -3 88 -10 50 -27 -159 -33 -225 -33 -405 0 -189 -1 -197 -13
-140 -7 33 -22 98 -32 145 -29 127 -42 378 -29 523 9 87 -3 96 -19 15 -51
-246 -68 -419 -60 -623 6 -161 -1 -167 -30 -20 -24 129 -51 374 -54 495 l-1
75 -15 -95 c-18 -119 -28 -553 -15 -617 10 -43 8 -76 -1 -42 -40 143 -66 277
-78 394 -5 55 -13 127 -17 160 l-8 60 -7 -65 c-31 -307 -31 -318 -11 -519 9
-78 -9 -77 -26 1 -6 29 -18 73 -26 98 -13 36 -16 95 -16 303 1 161 5 270 12
291 6 19 19 81 30 137 31 170 41 213 56 236 8 12 14 36 14 52 0 16 4 32 8 35
5 3 14 30 21 61 7 30 17 55 22 55 5 0 9 8 9 17 0 9 9 37 21 62 11 25 30 66 41
91 40 88 90 185 104 201 8 8 14 23 14 32 0 9 4 17 8 17 5 0 19 20 32 45 13 25
27 45 31 45 4 0 11 10 15 23 4 12 10 24 14 27 3 3 26 32 50 65 42 59 129 164
160 196 8 8 31 34 50 57 19 23 39 42 45 42 7 0 18 11 25 25 7 14 16 25 20 25
4 0 28 19 53 43 26 23 64 56 84 74 21 17 54 45 74 62 20 17 41 31 47 31 6 0
12 3 14 8 2 4 23 20 48 37 25 16 47 32 50 36 3 3 20 11 38 18 17 8 32 17 32
22 0 5 5 9 11 9 6 0 17 7 25 15 9 8 23 15 33 15 9 0 27 9 39 20 12 11 30 20
42 20 11 0 20 4 20 8 0 8 26 21 130 62 30 12 69 28 85 35 17 7 62 23 100 35
39 12 84 26 100 32 62 21 171 44 281 58 39 5 82 14 95 19 13 5 139 10 279 10
197 1 269 -2 313 -14z m1724 -2847 c-3 -7 -5 -2 -5 12 0 14 2 19 5 13 2 -7 2
-19 0 -25z m-4059 -365 c17 -43 34 -93 37 -111 6 -30 4 -33 -31 -48 -36 -15
-39 -15 -51 3 -8 10 -16 29 -19 43 -2 14 -12 45 -20 70 -28 78 -28 83 8 102
18 9 36 17 39 17 4 1 20 -34 37 -76z m4137 61 c30 -20 32 -49 6 -112 -11 -26
-22 -58 -25 -72 -11 -46 -18 -51 -60 -38 -43 13 -42 8 -8 133 31 114 38 121
87 89z m-3787 -366 c20 -7 54 -31 76 -52 41 -39 41 -40 41 -113 0 -74 0 -74
-40 -108 -22 -19 -54 -42 -72 -50 -18 -9 -33 -19 -33 -23 0 -4 -20 -18 -45
-32 -25 -14 -45 -27 -45 -30 0 -4 -19 -14 -42 -25 -45 -20 -95 -22 -111 -6 -6
6 -19 11 -29 11 -10 0 -18 5 -18 10 0 6 -12 21 -27 34 -22 19 -27 33 -31 85
-6 76 8 110 59 147 22 16 46 34 52 40 7 5 19 13 27 17 8 4 29 16 45 27 17 11
40 24 53 30 12 5 22 14 22 20 0 5 9 10 19 10 11 0 23 5 26 10 8 13 31 13 73
-2z m3482 -38 c76 -64 80 -71 80 -130 0 -39 -7 -67 -24 -96 l-24 -42 27 -13
c14 -8 35 -22 46 -32 11 -10 35 -25 53 -34 34 -16 39 -31 21 -64 -31 -59 -58
-66 -103 -26 -26 23 -93 65 -118 73 -10 4 -18 10 -18 15 0 5 -6 9 -13 9 -8 0
-24 11 -37 25 -13 14 -29 25 -37 25 -7 0 -13 5 -13 10 0 6 -4 10 -10 10 -10 0
-69 37 -109 69 l-25 19 27 35 c15 20 27 40 27 46 0 6 5 11 10 11 6 0 10 7 10
15 0 8 5 15 10 15 6 0 10 5 10 12 0 7 15 27 33 45 28 29 38 32 87 33 47 0 60
-5 90 -30z m-3220 -283 c33 -28 38 -50 20 -92 -9 -22 -20 -53 -24 -70 -4 -16
-16 -49 -28 -73 -11 -24 -18 -45 -15 -48 3 -3 42 31 87 76 l82 82 39 -42 c35
-37 43 -70 18 -70 -5 0 -9 -7 -9 -15 0 -8 -6 -15 -14 -15 -8 0 -18 -9 -21 -20
-3 -11 -10 -20 -15 -20 -7 0 -77 -60 -113 -97 -67 -69 -157 -170 -157 -175 0
-21 -32 -4 -63 33 -41 47 -39 65 9 162 8 16 14 35 14 43 0 8 7 28 15 44 9 17
13 30 9 30 -9 0 -54 -49 -54 -58 0 -4 -12 -16 -27 -27 -15 -11 -36 -30 -47
-42 -11 -13 -23 -23 -28 -23 -15 0 -78 63 -78 78 0 8 68 81 150 163 83 81 150
151 150 154 0 3 12 17 27 30 28 23 38 22 73 -8z m2944 -60 c55 -39 203 -192
226 -235 l24 -43 -19 -54 c-28 -83 -82 -125 -163 -125 -38 0 -55 5 -76 25 -15
14 -30 25 -35 25 -4 0 -18 15 -31 33 -13 17 -35 41 -48 51 -13 11 -29 25 -36
33 -6 8 -28 32 -48 53 -34 33 -38 43 -38 87 0 48 17 103 33 103 4 0 7 7 7 15
0 8 6 15 14 15 8 0 16 6 19 14 7 18 74 36 112 29 17 -3 43 -15 59 -26z m-347
-226 c3 -11 11 -22 19 -25 8 -3 14 -14 14 -25 0 -11 9 -25 20 -31 11 -6 20
-19 20 -29 0 -10 7 -24 15 -31 8 -7 15 -19 15 -26 0 -8 4 -14 8 -14 5 0 17
-16 28 -35 10 -19 22 -35 26 -35 5 0 8 -6 8 -14 0 -8 14 -30 30 -48 17 -18 30
-36 30 -41 0 -4 10 -21 21 -36 21 -28 19 -51 -3 -51 -6 0 -19 -6 -27 -14 -41
-35 -58 -30 -98 31 -21 32 -43 70 -50 85 -8 19 -17 26 -27 22 -9 -3 -16 -10
-16 -14 0 -4 -10 -10 -21 -13 -18 -5 -20 -11 -14 -34 3 -15 13 -32 21 -36 8
-4 14 -15 14 -22 0 -8 8 -23 18 -33 30 -30 41 -66 27 -85 -7 -9 -20 -17 -29
-17 -9 0 -16 -4 -16 -9 0 -5 -8 -12 -17 -15 -11 -5 -27 5 -50 31 -18 21 -33
43 -33 48 0 6 -7 20 -15 30 -28 38 -85 127 -85 134 0 5 -9 16 -20 26 -11 10
-20 25 -20 33 0 8 -12 31 -27 51 -56 73 -58 81 -29 107 14 13 31 24 39 24 7 0
18 5 24 11 9 9 16 2 27 -26 9 -20 30 -54 46 -74 17 -20 35 -42 41 -49 9 -10
17 -9 42 7 38 24 42 34 22 54 -8 9 -15 20 -15 25 0 5 -7 15 -15 22 -8 7 -15
21 -15 31 0 10 -9 23 -20 29 -24 13 -28 60 -5 60 8 0 24 9 35 20 25 25 50 26
57 1z m-2264 -21 c51 -32 55 -41 31 -61 -9 -7 -20 -22 -25 -34 -12 -26 -30
-54 -51 -79 -10 -11 -18 -26 -18 -33 0 -8 -6 -16 -14 -19 -8 -3 -18 -18 -21
-34 -3 -16 -13 -31 -21 -34 -8 -3 -14 -14 -14 -25 0 -11 -7 -26 -15 -35 -26
-26 -18 -55 20 -73 19 -9 35 -20 35 -25 0 -4 6 -8 14 -8 31 0 27 -50 -7 -92
-17 -21 -43 -23 -50 -5 -3 8 -20 21 -39 30 -50 24 -158 106 -158 120 0 6 9 23
20 37 36 45 80 115 80 128 0 6 4 12 8 12 5 0 16 16 25 35 9 19 21 35 27 35 5
0 10 6 10 14 0 7 7 19 15 26 8 7 15 20 15 29 0 9 9 24 20 34 11 9 20 26 20 37
0 11 7 20 15 20 8 0 15 7 15 15 0 21 10 19 63 -15z m304 -181 c68 -27 73 -32
67 -53 -6 -20 -23 -62 -64 -149 -11 -24 -20 -48 -20 -54 0 -6 -6 -24 -14 -40
-26 -51 -54 -117 -71 -165 -17 -50 -42 -79 -53 -61 -4 5 -24 16 -44 24 -44 15
-45 24 -18 85 11 24 29 64 40 88 11 25 20 50 20 56 0 6 16 44 35 84 19 40 35
81 35 90 0 9 5 16 10 16 6 0 10 7 10 15 0 8 5 15 10 15 6 0 10 14 10 30 0 33
6 35 47 19z m1566 -44 c66 -27 105 -121 63 -148 -34 -23 -77 -27 -84 -9 -19
50 -63 67 -82 32 -8 -15 -5 -24 17 -45 15 -14 37 -25 49 -25 38 0 145 -49 167
-76 30 -38 49 -94 42 -124 -10 -39 -56 -100 -76 -100 -11 0 -19 -4 -19 -9 0
-16 -85 -31 -119 -21 -43 12 -58 26 -82 71 -29 57 -25 77 17 95 48 20 77 15
84 -15 8 -33 34 -49 54 -32 33 27 9 72 -44 84 -66 15 -147 43 -163 57 -42 35
-75 158 -46 175 5 4 14 18 19 31 5 13 16 24 25 24 8 0 15 4 15 10 0 14 59 38
96 39 17 1 47 -6 67 -14z m-1333 -49 c24 -7 47 -19 51 -27 7 -13 29 -115 48
-224 l7 -40 8 52 c4 29 12 55 17 59 5 3 9 17 9 32 0 15 5 44 11 65 9 34 13 37
45 37 20 0 46 -8 58 -18 19 -14 21 -22 14 -42 -6 -14 -14 -50 -18 -80 -4 -30
-16 -75 -25 -100 -17 -47 -31 -111 -42 -193 -3 -26 -10 -50 -14 -53 -5 -3 -9
-16 -9 -28 0 -22 -3 -23 -47 -18 -53 6 -67 16 -76 52 -3 14 -12 52 -21 85 -8
33 -16 78 -16 100 -1 33 -3 36 -10 18 -5 -12 -14 -50 -20 -85 -6 -35 -16 -78
-23 -96 -11 -32 -14 -33 -47 -28 -19 3 -36 10 -38 16 -2 5 -13 10 -24 10 -22
0 -22 2 2 85 6 22 15 60 19 85 5 25 15 65 24 90 9 25 17 53 17 64 0 30 41 196
48 196 4 0 27 -6 52 -14z m690 -141 c0 -37 -4 -55 -12 -56 -7 0 -52 0 -100 1
l-88 1 0 -50 0 -51 75 0 75 0 0 -55 0 -55 -75 0 -75 0 0 -50 0 -50 101 0 100
0 -3 -52 -3 -53 -140 -2 c-77 -2 -150 -1 -162 2 -23 5 -23 6 -23 198 0 105 3
222 7 260 l6 67 158 0 159 0 0 -55z"/>
<path d="M2898 5494 c-34 -11 -52 -23 -67 -48 -25 -40 -26 -77 -6 -171 8 -39
15 -92 15 -120 0 -68 31 -98 98 -97 26 0 71 1 101 1 44 1 52 4 47 17 -3 8 -6
65 -6 125 l0 109 -44 0 c-73 0 -96 -13 -96 -55 0 -31 3 -35 25 -35 22 0 25 -4
25 -32 0 -38 -8 -52 -32 -61 -12 -4 -18 -2 -18 7 0 8 -6 16 -12 18 -13 5 -31
229 -21 255 3 7 18 13 33 13 28 0 40 -15 40 -51 0 -16 7 -19 40 -19 38 0 40 2
40 31 0 45 -27 96 -58 107 -51 19 -57 19 -104 6z"/>
<path d="M3215 5493 c-59 -29 -64 -45 -67 -219 l-3 -159 28 -28 c25 -24 37
-28 87 -28 37 -1 67 5 82 15 39 26 58 104 58 240 0 103 -3 121 -20 143 -41 52
-104 66 -165 36z m93 -86 c7 -8 8 -51 3 -129 -9 -130 -22 -159 -62 -138 -20
11 -21 18 -17 133 2 67 7 128 11 135 11 16 52 16 65 -1z"/>
<path d="M3525 5467 c-2 -6 -6 -32 -9 -57 -4 -25 -15 -74 -25 -110 -22 -74
-58 -270 -50 -270 11 -1 188 -32 209 -36 21 -5 27 0 37 27 7 17 10 35 8 40 -3
4 -39 15 -80 25 -81 19 -87 27 -63 79 13 28 49 33 93 13 29 -13 39 -5 51 41 8
28 -5 38 -64 47 -51 8 -59 22 -42 74 13 39 13 39 41 25 15 -8 40 -15 54 -15
15 0 35 -5 45 -10 22 -12 26 -7 35 43 6 29 4 37 -8 37 -8 0 -28 7 -43 15 -16
8 -42 15 -57 15 -16 0 -36 4 -45 9 -33 16 -83 21 -87 8z"/>
<path d="M2339 5368 c-2 -23 3 -42 21 -83 10 -23 22 -53 25 -68 4 -15 11 -27
16 -27 5 0 9 -9 9 -21 0 -20 0 -20 -29 3 -17 13 -30 26 -30 29 -2 16 -113 119
-128 119 -26 -1 -53 -24 -53 -46 1 -10 7 -30 15 -44 8 -14 14 -37 15 -52 0
-16 3 -28 8 -28 4 0 20 -35 35 -77 16 -43 37 -96 48 -118 10 -22 19 -48 19
-58 0 -16 5 -17 33 -12 17 4 35 9 40 12 14 8 7 57 -17 107 -13 28 -27 62 -31
76 -7 23 -7 24 11 10 46 -37 64 -54 64 -61 0 -4 14 -22 31 -40 25 -27 37 -32
72 -31 50 2 63 13 48 40 -6 11 -11 30 -11 41 0 10 -4 21 -8 23 -11 4 -52 115
-52 139 0 10 -3 19 -7 19 -10 0 -33 49 -33 69 0 8 -8 32 -17 53 -15 34 -20 38
-55 38 -23 0 -38 -5 -39 -12z"/>
<path d="M3885 5339 c-11 -6 -30 -31 -43 -57 -20 -41 -21 -51 -12 -79 7 -18
16 -33 21 -33 5 0 9 -11 9 -25 0 -14 4 -25 9 -25 5 0 16 -16 26 -35 22 -47 12
-98 -17 -93 -32 5 -45 32 -28 62 7 14 11 27 9 28 -74 45 -92 42 -103 -17 -15
-79 16 -128 93 -146 82 -19 151 33 151 113 0 30 -34 111 -61 144 -17 20 -15
76 3 87 24 16 61 -18 48 -44 -16 -29 -12 -45 15 -57 38 -18 51 -15 63 13 26
57 3 133 -49 159 -35 18 -103 20 -134 5z"/>
<path d="M1943 5176 c-13 -6 -23 -14 -23 -18 0 -5 -7 -8 -15 -8 -20 0 -20 -49
0 -87 8 -15 17 -45 20 -65 3 -21 10 -38 15 -38 5 0 12 -21 16 -47 3 -27 10
-53 15 -59 5 -6 17 -37 27 -69 17 -58 45 -91 60 -69 4 6 15 13 25 17 19 7 22
33 7 71 -8 21 -5 28 17 46 33 26 36 26 71 -9 l29 -30 32 20 c17 10 31 21 31
25 0 16 -36 65 -52 70 -10 3 -18 12 -18 20 0 8 -7 14 -15 14 -8 0 -15 4 -15 9
0 5 -26 37 -57 70 -32 33 -77 80 -101 105 -24 25 -44 45 -45 45 -1 -1 -12 -6
-24 -13z m125 -218 c23 -25 23 -25 2 -31 -22 -6 -32 8 -44 57 -8 31 -9 32 42
-26z"/>
<path d="M4426 5036 c-20 -24 -36 -49 -36 -55 0 -6 -9 -15 -20 -21 -11 -6 -20
-15 -20 -20 0 -6 -9 -20 -20 -32 -42 -48 -50 -58 -50 -67 0 -5 -7 -11 -15 -15
-8 -3 -15 -11 -15 -18 0 -8 -9 -21 -20 -31 -29 -25 -25 -59 8 -78 28 -16 29
-15 55 13 15 15 27 32 27 37 0 5 7 11 15 15 8 3 15 12 15 19 0 8 6 20 14 26
11 9 21 5 47 -19 18 -16 28 -30 21 -30 -6 0 -12 -5 -12 -10 0 -6 -4 -16 -10
-23 -45 -56 -58 -75 -60 -87 -4 -28 0 -40 15 -40 7 0 18 -8 24 -17 9 -16 13
-14 40 17 17 19 30 41 31 48 0 6 4 12 9 12 6 0 16 11 23 24 16 30 98 141 133
179 14 15 25 34 25 42 0 8 5 15 10 15 6 0 2 8 -8 18 -20 20 -62 35 -62 23 0
-6 -21 -32 -75 -93 -19 -23 -37 -23 -65 0 -22 18 -22 18 -3 55 10 20 23 37 29
37 7 0 15 11 18 25 4 14 13 25 21 25 8 0 15 6 15 13 0 14 -44 57 -59 57 -5 0
-25 -20 -45 -44z"/>
<path d="M1670 4970 c0 -5 -8 -10 -17 -10 -24 0 -62 -42 -72 -77 -11 -39 -3
-88 20 -112 10 -11 19 -23 19 -26 0 -3 14 -19 30 -35 17 -16 30 -34 30 -40 0
-5 7 -10 15 -10 8 0 15 -4 15 -10 0 -5 15 -25 33 -44 60 -63 143 -57 187 14
17 28 31 40 47 40 28 0 30 22 5 47 -11 10 -22 26 -25 36 -4 9 -13 17 -22 17
-8 0 -15 6 -15 13 -1 23 -67 90 -84 84 -9 -4 -16 -11 -16 -17 0 -5 -6 -10 -13
-10 -16 0 -47 -36 -47 -55 0 -8 5 -15 10 -15 6 0 10 -7 10 -15 0 -18 36 -20
43 -2 8 17 46 -32 47 -60 0 -46 -61 -38 -94 12 -18 27 -41 55 -88 109 -31 34
-32 39 -18 67 14 25 38 24 60 -3 l18 -22 36 24 c42 29 44 36 13 64 -38 34
-127 60 -127 36z"/>
<path d="M2835 4850 c-87 -17 -133 -29 -215 -54 -47 -15 -100 -31 -119 -36
-18 -4 -38 -13 -44 -19 -6 -6 -19 -11 -29 -11 -10 0 -18 -4 -18 -9 0 -5 -15
-12 -33 -15 -19 -3 -43 -15 -55 -26 -12 -11 -26 -20 -33 -20 -6 0 -22 -9 -36
-20 -14 -11 -32 -20 -39 -20 -8 0 -14 -4 -14 -10 0 -5 -7 -10 -15 -10 -9 0
-18 -7 -21 -15 -4 -8 -12 -15 -20 -15 -8 0 -14 -4 -14 -10 0 -5 -7 -10 -15
-10 -8 0 -15 -4 -15 -10 0 -5 -7 -10 -15 -10 -9 0 -18 -7 -21 -15 -4 -8 -10
-15 -15 -15 -5 0 -23 -12 -40 -27 -48 -42 -189 -182 -189 -187 0 -2 -18 -22
-40 -44 -22 -21 -40 -42 -40 -46 0 -4 -5 -12 -10 -19 -47 -55 -61 -74 -66 -89
-3 -10 -9 -18 -13 -18 -4 0 -13 -16 -21 -35 -8 -19 -17 -35 -21 -35 -4 0 -17
-26 -30 -57 -13 -32 -29 -64 -36 -71 -26 -26 -13 -33 54 -31 75 3 71 0 118 97
14 29 30 58 36 65 9 11 37 53 64 97 18 29 79 104 112 138 18 19 33 40 33 48 0
8 4 14 9 14 5 0 40 30 78 68 38 37 86 78 106 92 20 14 37 28 37 33 0 4 5 7 10
7 6 0 35 18 65 40 29 22 69 49 89 60 20 11 52 29 71 40 20 11 41 20 47 20 6 0
19 7 28 15 36 32 228 94 408 130 106 21 152 25 320 26 155 0 192 3 172 12 -30
13 -504 20 -565 7z"/>
<path d="M3455 4820 c11 -5 29 -9 40 -9 17 -1 17 1 5 9 -8 5 -26 9 -40 9 -23
0 -23 -1 -5 -9z"/>
<path d="M4728 4793 c-20 -21 -75 -74 -122 -118 -48 -44 -94 -86 -102 -93 -8
-7 -14 -18 -14 -23 0 -5 -6 -9 -14 -9 -37 0 -22 -33 49 -106 41 -43 75 -83 75
-91 0 -22 29 -15 55 13 l25 27 -31 38 c-17 22 -34 39 -37 39 -4 0 -15 12 -25
25 -18 25 -18 25 10 50 38 33 57 31 89 -10 29 -39 53 -44 77 -17 22 24 21 30
-5 57 -56 56 -58 64 -26 100 25 29 46 32 55 9 12 -32 83 -93 101 -87 54 19 55
47 2 101 -22 22 -40 43 -40 45 0 6 -79 87 -84 87 -1 0 -19 -17 -38 -37z"/>
<path d="M3740 4785 c0 -36 0 -36 38 -33 34 3 37 6 37 33 0 27 -3 30 -37 33
-38 3 -38 3 -38 -33z"/>
<path d="M1405 4717 c-29 -18 -45 -34 -45 -46 0 -6 -4 -11 -10 -11 -6 0 -10
-26 -10 -59 0 -56 2 -60 43 -96 23 -20 65 -58 92 -84 28 -26 61 -55 75 -64 32
-22 115 -23 124 -2 3 8 12 15 19 15 16 0 47 73 47 108 0 13 -5 33 -11 45 -12
22 -66 77 -76 77 -3 0 -19 14 -35 30 -15 17 -33 30 -38 30 -6 0 -10 7 -10 15
0 8 -5 15 -11 15 -6 0 -22 9 -36 20 -29 22 -87 26 -118 7z m87 -97 c7 -11 18
-20 24 -20 7 0 14 -7 18 -15 3 -8 10 -15 15 -15 15 0 101 -88 101 -104 0 -26
-28 -40 -55 -28 -14 7 -25 16 -25 22 0 5 -7 10 -15 10 -9 0 -18 7 -21 15 -4 8
-12 15 -20 15 -8 0 -14 6 -14 13 0 6 -16 23 -35 37 -37 28 -47 49 -33 74 12
22 45 20 60 -4z"/>
<path d="M3461 4635 l-2 -45 46 0 45 0 0 45 0 45 -43 0 -43 0 -3 -45z"/>
<path d="M3820 4550 c0 -13 7 -20 20 -20 13 0 20 7 20 20 0 13 -7 20 -20 20
-13 0 -20 -7 -20 -20z"/>
<path d="M4990 4520 c0 -6 -8 -14 -17 -17 -10 -4 -37 -20 -59 -35 -23 -15 -44
-28 -47 -28 -4 0 -17 -11 -31 -25 -14 -14 -32 -25 -41 -25 -8 0 -15 -4 -15
-10 0 -5 -7 -10 -15 -10 -9 0 -18 -7 -21 -15 -4 -8 -11 -15 -18 -15 -6 0 -23
-12 -38 -25 -23 -20 -26 -28 -19 -47 19 -49 34 -51 92 -10 30 21 62 41 72 45
29 11 20 -21 -18 -61 -19 -20 -35 -42 -35 -49 0 -6 -10 -19 -22 -28 -14 -9
-19 -18 -13 -23 6 -4 19 -20 29 -35 l18 -29 19 21 c10 11 19 23 19 26 0 3 11
18 25 33 14 15 25 31 25 36 0 27 32 43 74 39 78 -9 156 54 156 128 0 21 -4 39
-10 39 -5 0 -10 7 -10 16 0 26 -63 114 -82 114 -10 0 -18 -5 -18 -10z m30
-156 c0 -15 -6 -24 -15 -24 -8 0 -15 -4 -15 -9 0 -21 -33 -20 -51 1 -10 13
-18 25 -19 29 0 3 17 15 37 26 42 24 63 17 63 -23z"/>
<path d="M4300 4475 c0 -33 2 -35 35 -35 32 0 35 3 35 29 0 29 -14 41 -51 41
-15 0 -19 -7 -19 -35z"/>
<path d="M4000 4441 c0 -65 6 -71 81 -71 l36 0 5 52 c8 75 5 78 -63 78 l-59 0
0 -59z"/>
<path d="M3280 4365 l0 -45 45 0 45 0 0 45 0 45 -45 0 -45 0 0 -45z"/>
<path d="M3636 4349 c-9 -73 -4 -79 72 -79 l52 0 0 64 c0 63 0 64 -31 70 -17
3 -44 6 -59 6 -26 0 -28 -3 -34 -61z"/>
<path d="M1143 4364 c-4 -11 -13 -25 -20 -32 -17 -17 -17 -32 1 -32 8 0 16 -7
20 -15 3 -8 12 -15 21 -15 8 0 15 -4 15 -9 0 -5 14 -14 30 -21 17 -7 30 -16
30 -21 0 -5 5 -9 11 -9 11 0 82 -50 87 -62 2 -5 12 -8 23 -8 11 0 22 -7 25
-15 4 -8 15 -15 25 -15 10 0 19 -3 19 -8 0 -4 10 -13 21 -21 19 -11 24 -10 45
13 13 14 24 29 24 35 0 5 10 22 23 38 37 46 49 80 35 103 -7 10 -20 21 -29 23
-17 4 -49 -24 -49 -43 0 -6 -4 -10 -10 -10 -5 0 -10 -6 -10 -14 0 -7 -7 -19
-15 -26 -12 -10 -20 -7 -46 14 -17 14 -36 26 -43 26 -11 0 -25 9 -73 50 -7 5
-19 10 -26 10 -8 0 -21 7 -28 16 -7 9 -22 20 -34 25 -11 5 -30 16 -42 25 -21
15 -23 15 -30 -2z"/>
<path d="M2937 4333 c-4 -3 -7 -32 -7 -64 l0 -57 58 -4 c31 -2 60 -2 63 1 4 3
9 34 11 69 l4 62 -61 0 c-34 0 -65 -3 -68 -7z"/>
<path d="M4390 4195 l0 -55 60 0 60 0 0 55 0 55 -60 0 -60 0 0 -55z"/>
<path d="M5125 4174 c-33 -18 -70 -33 -81 -33 -12 -1 -24 -8 -28 -16 -3 -8
-11 -15 -19 -15 -7 0 -32 -9 -55 -20 -22 -11 -45 -20 -50 -20 -6 0 -12 -6 -15
-14 -3 -8 -16 -16 -29 -18 -18 -2 -22 -9 -20 -28 1 -14 7 -26 12 -28 6 -2 10
-10 10 -17 0 -7 7 -26 15 -42 8 -15 24 -49 35 -74 17 -41 22 -46 44 -42 37 7
53 30 38 54 -7 10 -12 26 -12 34 0 8 -3 15 -8 15 -4 0 -12 15 -18 33 -7 25 -7
36 3 45 11 10 57 32 68 32 2 0 13 -25 26 -55 25 -60 26 -61 64 -43 30 14 32
36 5 88 -27 52 -26 57 15 70 45 15 53 8 85 -69 27 -66 42 -74 78 -42 27 23 27
33 3 80 -10 20 -31 64 -47 98 -18 39 -35 62 -44 62 -8 -1 -42 -16 -75 -35z"/>
<path d="M4000 4145 l0 -55 55 0 55 0 0 49 c0 46 -1 49 -31 55 -74 15 -79 12
-79 -49z"/>
<path d="M1052 4145 c-36 -19 -45 -32 -59 -77 -15 -51 1 -125 29 -134 10 -3
18 -10 18 -15 0 -12 107 -12 115 1 3 6 14 10 24 10 10 0 35 11 55 25 47 32 91
33 99 3 4 -12 1 -28 -5 -35 -12 -15 -54 -17 -63 -3 -11 18 -21 11 -33 -23 -17
-48 -16 -51 23 -70 39 -18 85 -23 85 -8 0 5 8 12 19 16 20 6 61 93 61 131 0
14 -16 40 -40 64 -34 35 -45 40 -83 40 -27 0 -49 -6 -57 -15 -7 -8 -19 -15
-26 -15 -7 0 -28 -9 -46 -20 -37 -22 -84 -26 -90 -8 -3 7 -2 23 0 35 3 18 11
23 33 23 16 0 29 -4 29 -10 0 -21 19 -8 34 24 22 46 21 50 -17 64 -41 15 -75
14 -105 -3z"/>
<path d="M3323 4153 c-7 -2 -13 -13 -13 -24 0 -13 7 -19 23 -19 18 0 23 5 22
22 -2 23 -12 30 -32 21z"/>
<path d="M3840 4085 c0 -21 5 -25 30 -25 25 0 30 4 30 25 0 21 -5 25 -30 25
-25 0 -30 -4 -30 -25z"/>
<path d="M4650 4060 c0 -27 3 -30 30 -30 27 0 30 3 30 30 0 27 -3 30 -30 30
-27 0 -30 -3 -30 -30z"/>
<path d="M3568 4001 l-3 -79 59 -6 c103 -11 96 -16 96 73 l0 78 -37 7 c-21 3
-55 6 -75 6 l-36 0 -4 -79z"/>
<path d="M3130 3915 l0 -65 65 0 65 0 0 65 0 65 -65 0 -65 0 0 -65z"/>
<path d="M4050 3947 c0 -32 2 -33 30 -29 25 4 30 9 30 33 0 26 -4 29 -30 29
-27 0 -30 -3 -30 -33z"/>
<path d="M4280 3845 l0 -65 60 0 60 0 0 65 0 65 -60 0 -60 0 0 -65z"/>
<path d="M2820 3845 c0 -33 2 -35 35 -35 33 0 35 2 35 35 0 33 -2 35 -35 35
-33 0 -35 -2 -35 -35z"/>
<path d="M3860 3731 l0 -81 70 0 70 0 0 75 0 75 -39 0 c-21 0 -53 3 -70 6
l-31 7 0 -82z"/>
<path d="M1412 3770 c-38 -16 -49 -79 -20 -117 8 -10 61 -11 228 -6 190 5 220
4 234 -9 16 -16 66 -119 66 -136 0 -5 9 -19 20 -32 11 -13 20 -33 20 -45 0
-13 7 -28 15 -35 8 -7 15 -17 15 -24 0 -6 13 -38 29 -71 16 -33 43 -91 61
-130 17 -38 36 -78 41 -87 5 -10 9 -25 9 -33 0 -8 4 -15 9 -15 5 0 12 -12 16
-27 3 -15 15 -46 26 -70 10 -23 19 -50 19 -59 0 -10 6 -25 13 -33 7 -9 22 -36
32 -61 10 -25 29 -69 42 -98 13 -29 23 -59 23 -67 0 -8 4 -15 9 -15 5 0 14
-22 21 -50 7 -27 16 -50 21 -50 5 0 9 -6 9 -13 0 -7 9 -30 20 -52 11 -22 20
-46 20 -55 0 -8 9 -30 20 -48 11 -18 20 -39 20 -47 0 -9 5 -24 12 -34 9 -15 9
-25 0 -46 -7 -14 -12 -34 -12 -43 0 -10 -9 -35 -20 -57 -11 -22 -20 -51 -20
-65 0 -14 -5 -31 -11 -37 -6 -6 -11 -35 -11 -64 0 -30 5 -55 11 -57 6 -2 11
-10 11 -19 0 -28 71 -73 114 -73 22 0 26 4 26 29 0 16 7 47 15 70 l14 41 -34
0 -33 0 10 38 c5 20 14 42 18 47 4 6 11 28 14 49 4 22 15 56 24 77 15 35 19
37 71 42 31 3 81 10 111 15 108 21 176 32 270 42 52 5 127 17 165 25 83 17
419 65 525 75 121 11 177 29 189 59 5 14 12 161 16 326 3 165 8 354 11 421 9
167 -1 184 -103 184 l-63 0 0 60 0 60 -99 0 -99 0 -4 -56 c-3 -31 -10 -59 -17
-63 -10 -7 -927 -25 -1270 -26 l-115 0 -26 46 c-15 25 -33 61 -39 81 -7 20
-19 42 -27 48 -7 7 -14 19 -14 27 0 8 -22 60 -49 116 -27 56 -54 114 -60 130
l-11 27 -252 -1 c-139 0 -263 -4 -276 -9z m2407 -557 c6 -11 7 -151 4 -373 -5
-340 -6 -356 -26 -377 -17 -19 -31 -23 -83 -23 -35 0 -75 -5 -91 -11 -15 -6
-64 -15 -108 -20 -44 -5 -114 -14 -155 -20 -41 -5 -109 -14 -150 -18 -41 -5
-91 -14 -110 -20 -19 -6 -57 -11 -85 -11 -27 0 -84 -6 -125 -14 -41 -8 -123
-20 -183 -27 -102 -12 -108 -12 -121 7 -19 26 -5 34 61 34 28 0 64 5 80 11 15
6 57 15 93 21 36 5 88 13 115 18 28 4 78 13 112 18 34 6 68 14 75 18 6 4 44
11 82 14 81 8 298 48 306 57 10 10 -234 -5 -430 -27 -107 -12 -253 -25 -325
-30 -71 -4 -151 -11 -177 -15 -50 -8 -69 7 -25 19 36 11 256 47 337 56 41 4
86 12 100 18 14 5 72 15 129 21 57 7 114 17 128 22 13 5 41 9 62 9 21 0 58 7
81 15 23 8 66 15 94 16 28 1 62 5 76 10 17 6 2 7 -45 4 -38 -2 -149 -9 -245
-14 -96 -6 -193 -15 -215 -20 -22 -6 -74 -11 -115 -11 -41 0 -101 -4 -132 -9
-82 -14 -293 -25 -314 -17 -28 11 2 26 51 26 22 0 56 5 75 11 19 6 73 15 120
20 47 4 108 13 135 19 28 5 94 14 147 20 54 5 106 14 117 20 11 5 39 10 63 10
24 0 57 4 75 9 17 5 81 14 142 21 118 12 209 33 116 26 -27 -2 -129 -9 -225
-15 -96 -6 -242 -16 -325 -22 -82 -6 -213 -14 -290 -19 -77 -5 -168 -12 -202
-16 -53 -6 -63 -4 -63 8 0 19 23 24 180 38 63 6 122 13 130 16 8 3 49 9 90 14
41 5 154 20 250 35 96 14 220 30 275 35 55 5 114 13 130 19 27 8 25 9 -25 10
-30 0 -113 -6 -185 -14 -71 -8 -203 -15 -292 -15 -89 0 -195 -4 -235 -9 -40
-5 -137 -13 -215 -16 -126 -6 -143 -5 -143 9 0 13 13 16 65 16 35 0 90 7 122
15 31 8 79 15 106 15 26 0 67 4 90 9 23 5 99 15 169 21 69 6 143 16 165 21 21
5 88 14 148 20 61 5 135 14 165 18 66 11 -167 6 -420 -9 -221 -13 -660 -19
-660 -8 0 4 3 8 8 8 4 0 86 10 182 21 96 11 227 24 290 29 63 4 135 12 160 18
25 5 108 15 185 22 251 21 253 30 5 23 -608 -15 -875 -18 -882 -8 -5 6 27 12
86 16 52 4 100 10 107 14 7 5 74 12 148 16 169 9 673 57 680 65 3 4 -236 4
-531 2 -433 -3 -538 -1 -538 9 0 7 0 16 0 21 0 8 126 15 563 31 158 5 293 13
299 17 7 4 149 10 317 14 168 4 325 7 348 8 31 2 45 -3 52 -15z"/>
<path d="M3613 2623 c9 -2 23 -2 30 0 6 3 -1 5 -18 5 -16 0 -22 -2 -12 -5z"/>
<path d="M3570 2515 l-55 -13 50 0 c28 0 66 6 85 13 l35 13 -30 0 c-16 0 -55
-6 -85 -13z"/>
<path d="M3286 3661 c-3 -24 -6 -72 -6 -107 l0 -64 105 0 105 0 0 38 c0 20 3
67 6 104 l7 67 -106 3 -105 3 -6 -44z"/>
<path d="M3620 3665 c0 -21 5 -25 28 -25 22 0 27 4 27 25 0 21 -5 25 -27 25
-23 0 -28 -4 -28 -25z"/>
<path d="M4280 3585 c0 -21 5 -25 30 -25 25 0 30 4 30 25 0 21 -5 25 -30 25
-25 0 -30 -4 -30 -25z"/>
<path d="M2910 3493 c0 -22 -3 -61 -6 -87 l-7 -47 89 3 89 3 3 78 3 77 -63 0
c-35 0 -73 3 -85 6 -21 6 -23 3 -23 -33z"/>
<path d="M2580 3465 c0 -45 0 -45 35 -45 35 0 35 0 35 45 0 45 0 45 -35 45
-35 0 -35 0 -35 -45z"/>
<path d="M4068 3385 l-3 -65 68 0 67 0 0 65 0 65 -64 0 -64 0 -4 -65z"/>
<path d="M3559 2035 c-14 -8 -40 -27 -57 -43 -30 -28 -32 -35 -32 -96 0 -63 2
-68 40 -107 36 -37 43 -41 94 -41 72 -1 109 17 136 67 18 34 22 52 18 95 -3
33 -12 58 -22 65 -9 7 -16 16 -16 21 0 14 -82 54 -110 54 -14 -1 -37 -7 -51
-15z m76 -97 c19 -8 25 -19 25 -43 0 -38 -16 -55 -52 -55 -48 0 -66 66 -26 94
27 19 21 19 53 4z"/>
<path d="M3813 2023 c-58 -4 -61 -8 -37 -34 9 -10 19 -39 21 -64 l6 -45 41 6
c50 8 86 38 86 74 0 31 -30 71 -51 68 -8 -1 -38 -3 -66 -5z"/>
<path d="M3385 1989 c-22 -4 -100 -8 -173 -8 -116 -1 -223 -10 -299 -26 l-21
-5 24 -50 c13 -27 24 -54 24 -60 0 -13 -6 -13 240 5 113 8 212 15 221 15 11 0
18 12 22 39 3 22 12 54 20 70 18 35 16 36 -58 20z"/>
<path d="M2682 1967 c-91 -85 -102 -114 -71 -186 14 -33 33 -58 54 -71 39 -24
117 -27 139 -5 8 8 18 15 23 15 4 0 17 13 28 28 39 53 16 200 -31 202 -6 0
-17 7 -24 15 -15 18 -99 20 -118 2z m94 -101 c8 -8 14 -28 14 -44 0 -57 -82
-64 -96 -8 -13 53 45 89 82 52z"/>
<path d="M1378 2005 c-20 -14 -41 -25 -45 -25 -5 0 -20 -11 -35 -25 -15 -14
-31 -25 -35 -25 -5 0 -25 -14 -45 -30 -34 -28 -36 -33 -26 -55 16 -35 43 -31
108 16 30 21 79 55 108 74 39 26 52 41 52 59 0 21 -16 36 -38 36 -4 0 -24 -11
-44 -25z"/>
<path d="M4813 1996 l-21 -24 31 -26 c37 -31 48 -32 70 -8 21 23 21 28 -2 51
-32 32 -55 34 -78 7z"/>
<path d="M4556 1664 c-9 -8 -16 -21 -16 -28 0 -7 42 -57 94 -110 74 -77 99
-97 118 -94 17 2 24 10 26 30 3 27 -30 65 -161 186 -41 37 -41 37 -61 16z"/>
</g>
</svg>
